<?xml version="1.0" encoding="UTF-8"?>
<svg width="20px" height="25px" viewBox="0 0 20 25" version="1.1" xmlns="http://www.w3.org/2000/svg" xmlns:xlink="http://www.w3.org/1999/xlink">
    <title>Group 25</title>
    <g id="Page-1" stroke="none" stroke-width="1" fill="none" fill-rule="evenodd" stroke-linecap="round" stroke-linejoin="round">
        <g id="Home-Page" transform="translate(-801.000000, -12730.000000)" stroke="#222222">
            <g id="Group-23" transform="translate(0.000000, 12490.000000)">
                <g id="Group-39" transform="translate(799.000000, 241.000000)">
                    <g id="Group-36" transform="translate(3.000000, 0.000000)">
                        <g id="Group-25">
                            <path d="M18,9.5 C18,16.5 9,23 9,23 C9,23 0,16.5 0,9.5 C0,4.254 3.753,0 9,0 C14.246,0 18,4.254 18,9.5 Z" id="Stroke-1"></path>
                            <path d="M14,9 C14,11.761 11.761,14 9,14 C6.238,14 4,11.761 4,9 C4,6.239 6.238,4 9,4 C11.761,4 14,6.239 14,9 Z" id="Stroke-3"></path>
                        </g>
                    </g>
                </g>
            </g>
        </g>
    </g>
</svg>