<?xml version="1.0" encoding="UTF-8"?>
<svg width="25px" height="23px" viewBox="0 0 25 23" version="1.1" xmlns="http://www.w3.org/2000/svg" xmlns:xlink="http://www.w3.org/1999/xlink">
    <title>A165400D-D738-4C1B-BF6B-B62669609795</title>
    <g id="Page-1" stroke="none" stroke-width="1" fill="none" fill-rule="evenodd" stroke-linejoin="round">
        <g id="Home-Page" transform="translate(-270.000000, -13046.000000)" stroke="#222222">
            <g id="Group-23" transform="translate(0.000000, 12490.000000)">
                <g id="Icon_massege-Copy" transform="translate(271.000000, 557.000000)">
                    <path d="M23,9.383 C23,14.564 17.852,18.766 11.5,18.766 C10.082,18.766 8.725,18.556 7.471,18.173 L0.862,21.249 L3.45,16.083 C1.32,14.38 0,12.007 0,9.383 C0,4.201 5.148,-1.77635684e-15 11.5,-1.77635684e-15 C17.852,-1.77635684e-15 23,4.201 23,9.383 L23,9.383 Z" id="Stroke-1443"></path>
                    <path d="M7,9.5002 C7,10.3272 6.328,11.0002 5.5,11.0002 C4.672,11.0002 4,10.3272 4,9.5002 C4,8.6712 4.672,8.0002 5.5,8.0002 C6.328,8.0002 7,8.6712 7,9.5002 L7,9.5002 Z" id="Stroke-1444"></path>
                    <path d="M13,9.5002 C13,10.3272 12.328,11.0002 11.5,11.0002 C10.672,11.0002 10,10.3272 10,9.5002 C10,8.6712 10.672,8.0002 11.5,8.0002 C12.328,8.0002 13,8.6712 13,9.5002 L13,9.5002 Z" id="Stroke-1445"></path>
                    <path d="M19,9.5002 C19,10.3272 18.328,11.0002 17.5,11.0002 C16.672,11.0002 16,10.3272 16,9.5002 C16,8.6712 16.672,8.0002 17.5,8.0002 C18.328,8.0002 19,8.6712 19,9.5002 L19,9.5002 Z" id="Stroke-1446"></path>
                </g>
            </g>
        </g>
    </g>
</svg>