<?xml version="1.0" encoding="UTF-8"?>
<svg width="23px" height="20px" viewBox="0 0 23 20" version="1.1" xmlns="http://www.w3.org/2000/svg" xmlns:xlink="http://www.w3.org/1999/xlink">
    <title>76DC9A71-CCA3-4F9E-AA6C-C40E886D6896</title>
    <g id="Page-1" stroke="none" stroke-width="1" fill="none" fill-rule="evenodd" stroke-linecap="round" stroke-linejoin="round">
        <g id="Home-Page" transform="translate(-269.000000, -12747.000000)" stroke="#222222">
            <g id="Group-23" transform="translate(0.000000, 12490.000000)">
                <g id="Icon_issue-Copy" transform="translate(270.000000, 258.000000)">
                    <path d="M3.66666667,1.83333333 C3.66666667,2.84533333 2.84533333,3.66666667 1.83333333,3.66666667 C0.8195,3.66666667 6.06403816e-13,2.84533333 6.06403816e-13,1.83333333 C6.06403816e-13,0.821333333 0.8195,-3.03090886e-13 1.83333333,-3.03090886e-13 C2.84533333,-3.03090886e-13 3.66666667,0.821333333 3.66666667,1.83333333 L3.66666667,1.83333333 Z" id="Stroke-2388"></path>
                    <line x1="7.33333333" y1="1.83333333" x2="21.0833333" y2="1.83333333" id="Stroke-2389"></line>
                    <path d="M3.66666667,9.16666667 C3.66666667,10.1786667 2.84533333,11 1.83333333,11 C0.8195,11 6.06403816e-13,10.1786667 6.06403816e-13,9.16666667 C6.06403816e-13,8.15466667 0.8195,7.33333333 1.83333333,7.33333333 C2.84533333,7.33333333 3.66666667,8.15466667 3.66666667,9.16666667 L3.66666667,9.16666667 Z" id="Stroke-2390"></path>
                    <line x1="7.33333333" y1="9.16666667" x2="21.0833333" y2="9.16666667" id="Stroke-2391"></line>
                    <path d="M3.66666667,16.5 C3.66666667,17.512 2.84533333,18.3333333 1.83333333,18.3333333 C0.8195,18.3333333 6.06403816e-13,17.512 6.06403816e-13,16.5 C6.06403816e-13,15.488 0.8195,14.6666667 1.83333333,14.6666667 C2.84533333,14.6666667 3.66666667,15.488 3.66666667,16.5 L3.66666667,16.5 Z" id="Stroke-2392"></path>
                    <line x1="7.33333333" y1="16.5" x2="21.0833333" y2="16.5" id="Stroke-2393"></line>
                </g>
            </g>
        </g>
    </g>
</svg>