<?xml version="1.0" encoding="UTF-8"?>
<svg width="25px" height="25px" viewBox="0 0 25 25" version="1.1" xmlns="http://www.w3.org/2000/svg" xmlns:xlink="http://www.w3.org/1999/xlink">
    <title>F4622226-17B5-4E72-B3CE-5554346578A4</title>
    <g id="Page-1" stroke="none" stroke-width="1" fill="none" fill-rule="evenodd" stroke-linejoin="round">
        <g id="Home-Page" transform="translate(-270.000000, -12818.000000)" stroke="#222222">
            <g id="Group-23" transform="translate(0.000000, 12490.000000)">
                <path d="M282.5,352 L294,352 C294,352 294,349.942975 293,347.94295 C292.254,346.450932 289,345.44292 285,343.942902 L285,340.942865 C285,340.942865 286.5,339.942853 286.5,337.942828 C287,337.942828 287.5,335.942804 286.5,335.442798 C286.5,335.145794 287.839,332.641764 287.5,330.942743 C287,328.442712 280,328.442712 279.5,330.442737 C276.5,330.442737 278.5,335.036793 278.5,335.442798 C277.5,335.942804 278,337.942828 278.5,337.942828 C278.5,339.942853 280,340.942865 280,340.942865 L280,343.942902 C276,345.44292 272.745,346.450932 272,347.94295 C271,349.942975 271,352 271,352 L282.5,352 L282.5,352 Z" id="Icon_Name"></path>
            </g>
        </g>
    </g>
</svg>