<?xml version="1.0" encoding="UTF-8"?>
<svg width="25px" height="25px" viewBox="0 0 25 25" version="1.1" xmlns="http://www.w3.org/2000/svg" xmlns:xlink="http://www.w3.org/1999/xlink">
    <title>F88EDBE6-EEC4-4C42-8C73-704676D9E7BB</title>
    <g id="Page-1" stroke="none" stroke-width="1" fill="none" fill-rule="evenodd" stroke-linecap="round" stroke-linejoin="round">
        <g id="Home-Page" transform="translate(-269.000000, -12893.000000)" stroke="#222222">
            <g id="Group-23" transform="translate(0.000000, 12490.000000)">
                <g id="Icon_phone" transform="translate(270.000000, 404.000000)">
                    <path d="M6.99134819,9.5118 C7.77134819,8.7308 7.77134819,7.4638 6.99134819,6.6828 L4.86934819,4.5618 C4.08934819,3.7818 2.82134819,3.7818 2.04134819,4.5618 L0.877348195,5.7258 C-0.131651805,6.7348 -0.287651805,8.3098 0.499348195,9.4998 C3.87934819,14.6108 8.38734819,19.1188 13.4993482,22.4998 C14.6873482,23.2848 16.2663482,23.1288 17.2723482,22.1208 L18.4373482,20.9568 C19.2183482,20.1768 19.2183482,18.9098 18.4373482,18.1288 L16.3153482,16.0078 C15.5343482,15.2268 14.2683482,15.2268 13.4873482,16.0078 L12.7803482,16.7148 C10.4543482,14.8088 8.18934819,12.5448 6.28434819,10.2188 L6.99134819,9.5118 Z" id="Stroke-14"></path>
                    <path d="M11.4991482,0 C17.8511482,0 22.9991482,5.148 22.9991482,11.5" id="Stroke-16"></path>
                    <path d="M11.4991482,4 C15.6411482,4 18.9991482,7.357 18.9991482,11.5" id="Stroke-18"></path>
                    <path d="M11.4991482,8 C13.4321482,8 14.9991482,9.566 14.9991482,11.5" id="Stroke-20"></path>
                </g>
            </g>
        </g>
    </g>
</svg>