<?xml version="1.0" encoding="UTF-8"?>
<svg width="36px" height="37px" viewBox="0 0 36 37" version="1.1" xmlns="http://www.w3.org/2000/svg" xmlns:xlink="http://www.w3.org/1999/xlink">
    <title>Fill 94</title>
    <g id="Symbols" stroke="none" stroke-width="1" fill="none" fill-rule="evenodd">
        <g id="Footer" transform="translate(-1200.000000, -305.000000)" fill="#FFFFFF">
            <g id="Group-21">
                <g transform="translate(140.000000, 305.000000)">
                    <g id="Group-2" transform="translate(997.000000, 0.000000)">
                        <path d="M86.392,17.2871767 L83.25,17.2871767 L83.25,27.809806 L78.75,27.809806 L78.75,17.2871767 L75.75,17.2871767 L75.75,14.2807112 L78.75,14.2807112 L78.75,12.5309483 C78.75,10.8773922 79.278,8.29383621 82.725,8.29383621 L86.25,8.30385776 L86.25,11.7703125 L84.138,11.7703125 C83.772,11.7703125 83.25,11.9557112 83.25,12.7434052 L83.25,14.2807112 L86.759,14.2807112 L86.392,17.2871767 Z M81,0 C71.075,0 63,8.09140086 63,18.0387931 C63,27.9851832 71.075,36.0775862 81,36.0775862 C90.926,36.0775862 99,27.9851832 99,18.0387931 C99,8.09140086 90.926,0 81,0 L81,0 Z" id="Fill-94"></path>
                    </g>
                </g>
            </g>
        </g>
    </g>
</svg>