<?xml version="1.0" encoding="UTF-8"?>
<svg width="36px" height="36px" viewBox="0 0 36 36" version="1.1" xmlns="http://www.w3.org/2000/svg" xmlns:xlink="http://www.w3.org/1999/xlink">
    <title>Group 14</title>
    <defs>
        <polygon id="path-1" points="0 0.229584639 35.1163636 0.229584639 35.1163636 35.4216301 0 35.4216301"></polygon>
    </defs>
    <g id="Symbols" stroke="none" stroke-width="1" fill="none" fill-rule="evenodd">
        <g id="Footer" transform="translate(-1264.000000, -305.000000)">
            <g id="Group-21">
                <g transform="translate(140.000000, 305.000000)">
                    <g id="Group-2" transform="translate(997.000000, 0.000000)">
                        <g id="Group-14" transform="translate(127.000000, 0.000000)">
                            <path d="M15.7234255,26.4333259 C15.5774618,26.6163376 15.2528073,26.9161096 15.0204436,26.9161096 C14.7645164,26.9161096 14.7010255,26.7416252 14.7010255,26.4805547 L14.7010255,21.5372694 L13.5045164,21.5372694 L13.5045164,26.9285727 C13.5045164,28.2385171 14.3907709,28.2457326 15.0341891,27.8751174 C15.2724436,27.7380226 15.5021891,27.537956 15.7234255,27.2762295 L15.7234255,27.9872859 L16.9199345,27.9872859 L16.9199345,21.5372694 L15.7234255,21.5372694 L15.7234255,26.4333259 Z" id="Fill-1" fill="#FFFFFF"></path>
                            <path d="M20.2956873,26.476291 C20.2956873,26.6822612 20.2616509,26.8298513 20.1903055,26.9203733 C20.0600509,27.0935457 19.77336,27.0856742 19.57896,26.9866248 C19.4873236,26.9407079 19.3937236,26.864617 19.2961964,26.759664 L19.2961964,22.739965 C19.3780145,22.6514109 19.4591782,22.5864712 19.54296,22.5425222 C19.7530691,22.4375692 20.0233964,22.4579038 20.1667418,22.650099 C20.2524873,22.7609556 20.2956873,22.9275684 20.2956873,23.1453458 L20.2956873,26.476291 Z M20.3591782,21.4556029 C19.9330691,21.4556029 19.5652145,21.7284806 19.2961964,22.0584266 L19.2961964,19.242407 L18.0872509,19.242407 L18.0872509,27.9876139 L19.2961964,27.9876139 L19.2961964,27.4917111 C19.6287055,27.9088991 19.9945964,28.0689524 20.4331418,28.0689524 C21.2297236,28.0689524 21.5268873,27.4490739 21.5268873,26.6507753 L21.5268873,23.0718788 C21.5268873,22.1981452 21.2369236,21.4556029 20.3591782,21.4556029 L20.3591782,21.4556029 Z" id="Fill-3" fill="#FFFFFF"></path>
                            <polygon id="Fill-5" fill="#FFFFFF" points="13.5207491 19.2421446 9.38402182 19.2421446 9.38402182 20.5127316 10.7788582 20.5127316 10.7788582 27.9873515 12.1265673 27.9873515 12.1265673 20.5127316 13.5207491 20.5127316"></polygon>
                            <g id="Group-9" transform="translate(0.000000, 0.426634)">
                                <mask id="mask-2" fill="white">
                                    <use xlink:href="#path-1"></use>
                                </mask>
                                <g id="Clip-8"></g>
                                <path d="M27.84528,26.8352958 C27.84528,28.4299251 26.5551709,29.7228146 24.9639709,29.7228146 L10.1522618,29.7228146 C8.56171636,29.7228146 7.27095273,28.4299251 7.27095273,26.8352958 L7.27095273,19.5404078 C7.27095273,17.9457785 8.56171636,16.6522331 10.1522618,16.6522331 L24.9639709,16.6522331 C26.5551709,16.6522331 27.84528,17.9457785 27.84528,19.5404078 L27.84528,26.8352958 Z M11.7140073,5.92800658 L12.6912436,9.59808103 L13.5977891,5.92800658 L15.0345164,5.92800658 L13.38768,11.3862174 L13.38768,15.1107362 L11.9732073,15.1107362 L11.9732073,11.3862174 L10.2903709,5.92800658 L11.7140073,5.92800658 Z M16.8129164,8.28157712 C17.83008,8.28157712 18.6174982,9.04117429 18.6174982,10.1018553 L18.6174982,13.4203373 C18.6174982,14.5597331 17.8222255,15.2360238 16.8129164,15.2360238 C15.5934982,15.2360238 14.9703709,14.6148334 14.9703709,13.4203373 L14.9703709,10.1018553 C14.9703709,9.01362414 15.7054255,8.28157712 16.8129164,8.28157712 L16.8129164,8.28157712 Z M19.6850618,8.33602147 L20.9430982,8.33602147 L20.9430982,13.5305379 C20.9430982,13.8027597 21.0072436,13.9857715 21.2775709,13.9857715 C21.5223709,13.9857715 21.8627345,13.6709125 22.0158982,13.4787174 L22.0158982,8.33798934 L23.2726255,8.33798934 L23.2726255,15.1107362 L22.0158982,15.1107362 L22.0158982,14.3629462 C21.4706618,15.0116868 20.9430982,15.2091296 20.5628073,15.2091296 C19.8899345,15.2091296 19.6850618,14.6673099 19.6850618,13.9988906 L19.6850618,8.33602147 Z M17.5584436,0.229059875 C7.86135273,0.229059875 -0.000392727273,8.10774875 -0.000392727273,17.8257386 C-0.000392727273,27.5437284 7.86135273,35.4217613 17.5584436,35.4217613 C27.2555345,35.4217613 35.1166255,27.5437284 35.1166255,17.8257386 C35.1166255,8.10774875 27.2555345,0.229059875 17.5584436,0.229059875 L17.5584436,0.229059875 Z" id="Fill-7" fill="#FFFFFF" mask="url(#mask-2)"></path>
                            </g>
                            <path d="M24.7189745,23.9120274 L23.6612291,23.9120274 L23.6612291,23.260007 C23.6612291,22.8159247 23.7528655,22.5036896 24.1966473,22.5036896 C24.6253745,22.5036896 24.7189745,22.8218283 24.7189745,23.260007 L24.7189745,23.9120274 Z M24.2463927,21.3741332 C23.1677018,21.3741332 22.4300291,22.1501292 22.4300291,23.2711582 L22.4300291,26.1672045 C22.4300291,27.3282468 23.0145382,28.162623 24.1580291,28.162623 C25.4180291,28.162623 25.9514836,27.4095853 25.9514836,26.1672045 L25.9514836,25.6824529 L24.7189745,25.6824529 L24.7189745,26.1304709 C24.7189745,26.6919694 24.6888655,27.0324106 24.1842109,27.0324106 C23.70312,27.0324106 23.6612291,26.6145665 23.6612291,26.1304709 L23.6612291,24.9136723 L25.9514836,24.9136723 L25.9514836,23.2711582 C25.9514836,22.1048683 25.3957745,21.3741332 24.2463927,21.3741332 L24.2463927,21.3741332 Z" id="Fill-10" fill="#FFFFFF"></path>
                            <path d="M16.8126545,14.4326744 C17.1517091,14.4326744 17.3382545,14.1591407 17.3382545,13.7904933 L17.3382545,10.6392802 C17.3382545,10.2601375 17.1733091,9.9931634 16.7884364,9.9931634 C16.4356364,9.9931634 16.2648,10.268009 16.2648,10.6392802 L16.2648,13.7904933 C16.2648,14.1473335 16.4650909,14.4326744 16.8126545,14.4326744" id="Fill-12" fill="#FFFFFF"></path>
                        </g>
                    </g>
                </g>
            </g>
        </g>
    </g>
</svg>