<?xml version="1.0" encoding="UTF-8"?>
<svg width="36px" height="37px" viewBox="0 0 36 37" version="1.1" xmlns="http://www.w3.org/2000/svg" xmlns:xlink="http://www.w3.org/1999/xlink">
    <title>Fill 92</title>
    <g id="Symbols" stroke="none" stroke-width="1" fill="none" fill-rule="evenodd">
        <g id="Footer" transform="translate(-1137.000000, -305.000000)" fill="#FFFFFF">
            <g id="Group-21">
                <g transform="translate(140.000000, 305.000000)">
                    <g id="Group-2" transform="translate(997.000000, 0.000000)">
                        <path d="M25.893,14.1073384 C25.902,14.2767026 25.905,14.447069 25.905,14.6184375 C25.905,19.846681 21.934,25.8766487 14.672,25.8766487 C12.443,25.8766487 10.367,25.2202371 8.62,24.0978233 C10.681,24.3393427 12.777,23.7871552 14.464,22.4603017 C12.737,22.4272306 11.28,21.2827694 10.777,19.7123922 C11.372,19.8236315 11.981,19.8035884 12.56,19.6422414 C10.754,19.2814655 9.393,17.6810237 9.393,15.7659052 L9.393,15.7137931 C9.926,16.0094289 10.536,16.1878125 11.182,16.2098599 C10.122,15.4993319 9.425,14.2897306 9.425,12.916778 C9.425,12.1912177 9.62,11.5127586 9.96,10.9264978 C11.907,13.3206466 14.816,14.8970366 18.097,15.0593858 C18.03,14.7717672 17.995,14.4671121 17.995,14.1594504 C17.995,11.97375 19.763,10.2029418 21.944,10.2029418 C23.079,10.2029418 24.104,10.681972 24.825,11.4536315 C25.725,11.2742457 27.75,11.0537716 27.75,11.0537716 C27.222,11.8484806 26.665,13.5471336 25.893,14.1073384 M18,0 C8.075,0 0,8.09140086 0,18.0387931 C0,27.9851832 8.075,36.0775862 18,36.0775862 C27.926,36.0775862 36,27.9851832 36,18.0387931 C36,8.09140086 27.926,0 18,0" id="Fill-92"></path>
                    </g>
                </g>
            </g>
        </g>
    </g>
</svg>